<?xml version="1.0" encoding="utf-8"?>
<!-- Generator: Adobe Illustrator 26.5.0, SVG Export Plug-In . SVG Version: 6.00 Build 0)  -->
<svg version="1.1" id="Layer_1" xmlns="http://www.w3.org/2000/svg" xmlns:xlink="http://www.w3.org/1999/xlink" x="0px" y="0px"
	 viewBox="0 0 243.9 188" style="enable-background:new 0 0 243.9 188;" xml:space="preserve">
<style type="text/css">
	.st0{fill:#E28181;}
</style>
<path class="st0" d="M203.9,67.3c-27.8,0-32.8,15.1-32,31.1c0.8,16,13.5,20.2,26.9,19.3c5,5.9,8.4,48.8-25.2,48.8
	c-20.2,0-32-26.1-32-32s-0.1-98-0.1-98S126.6-0.8,75.3,0C44.2,0,9.7,19.4,9.7,39.5c0,9.3,5,20.2,20.2,19.3
	C45,58,50.9,47.1,52.6,34.5s11.8-16,18.5-16c6.7,0,20.2,9.3,21,23.5c0.8,14.3,1.3,17.2,1.3,17.2S0,63.5,0,116.5
	c0,32.8,19.3,40.4,47.9,40.4c23.5,0,47.1-17.7,47.1-17.7s11.8,49.6,75.7,48.8s73.2-35.3,73.2-69S231.7,67.3,203.9,67.3z M92.1,116.7
	c0,0-12.6,13.6-22.7,13.6s-16.8-10.1-16.8-17.7s5.9-32.8,39.5-36.2V116.7z"/>
</svg>
