<?xml version="1.0" encoding="utf-8"?>
<!-- Generator: Adobe Illustrator 26.5.0, SVG Export Plug-In . SVG Version: 6.00 Build 0)  -->
<svg version="1.1" id="Layer_1" xmlns="http://www.w3.org/2000/svg" xmlns:xlink="http://www.w3.org/1999/xlink" x="0px" y="0px"
	 viewBox="0 0 238.2 188.4" style="enable-background:new 0 0 238.2 188.4;" xml:space="preserve">
<style type="text/css">
	.st0{fill:#E28181;}
</style>
<path class="st0" d="M195.8,93.2c0,0,35.3-6.3,34.5-47S186.4,0,186.4,0H72.2c0,0-73,21.2-72.2,84.6c0,29.8,14.9,47.8,34.5,47
	s25.1-12.5,23.5-27.4S43.1,91.7,34.5,79.1s0-56.4,56-49.7v139.9c0,0-17.2,19.1-4.7,19.1s107.8,0,107.8,0s43.8-2.7,44.6-46.6
	S195.8,93.2,195.8,93.2z M139.4,20.4h21.1c0,0,17.3,7.1,16.8,30.7s-13.6,30.7-13.6,30.7h-24.3V20.4z M158.4,164.8
	c-15.5-0.5-18.9-7.7-18.9-7.7v-50.1H168c0,0,16.9,5.9,17.3,28.9C185.7,158.9,173.9,165.3,158.4,164.8z"/>
</svg>
