<?xml version="1.0" encoding="utf-8"?>
<!-- Generator: Adobe Illustrator 26.5.0, SVG Export Plug-In . SVG Version: 6.00 Build 0)  -->
<svg version="1.1" id="Layer_1" xmlns="http://www.w3.org/2000/svg" xmlns:xlink="http://www.w3.org/1999/xlink" x="0px" y="0px"
	 viewBox="0 0 163.6 187.5" style="enable-background:new 0 0 163.6 187.5;" xml:space="preserve">
<style type="text/css">
	.st0{fill:#E28181;}
</style>
<path class="st0" d="M92.6,13.2C77.5,24.9,105,38.7,105,38.7s33.1,15.8,33.1,53c0,27.6-20.7,66.8-59.9,66.1s-31.3-18.9-31.3-18.9
	l63.4-24.1c0,0,7.6-2.8,6.9-11s-8.3-42-53-44.1C19.3,57.6,0,99.6,0,124.4s12.1,64.4,65.1,63s99.2-35.1,98.5-119.2
	S116.1-6.1,92.6,13.2z M51.3,80c10.3-4.1,27.6,26.9,27.6,26.9L37.5,122C37.5,122,32.7,89,51.3,80z"/>
</svg>
