<?xml version="1.0" encoding="utf-8"?>
<!-- Generator: Adobe Illustrator 26.5.0, SVG Export Plug-In . SVG Version: 6.00 Build 0)  -->
<svg version="1.1" id="Layer_1" xmlns="http://www.w3.org/2000/svg" xmlns:xlink="http://www.w3.org/1999/xlink" x="0px" y="0px"
	 viewBox="0 0 856.3 858.1" style="enable-background:new 0 0 856.3 858.1;" xml:space="preserve">
<g>
	<g>
		<path d="M126.7,633.9c4.1-4.5,7.2-8.3,10.9-11.5c1.1-1,5.1-0.8,5.5,0c2.3,4.9,6.1,4.6,10.5,4.2c5.1-0.5,9.7,0.2,13.7,4.5
			c1.8,2,5.7,2.9,8.7,2.9c17.2,0.3,34.3,0.3,51.5,0.2c8,0,8.5-0.6,8.5-8.7c0-62.5,0-124.9,0-187.4c0-13.3,0.3-26.6,0.3-40
			c0-4,0.3-8-4.6-10.6c-1.8-0.9-2.2-5.8-2-8.7c0.3-3.7,10.1-11,14.1-11.1c7.4-0.2,14.8-0.2,22.2-0.6c1.7-0.1,3.3-1.7,5-2.6
			c-1.7-1.2-3.2-3.3-5-3.5c-5.3-0.6-10.6-0.5-16-0.5c-4.5,0-6.5-2.1-6.5-6.5c0-17.2-0.1-34.3,0.1-51.5c0-1.8,1.1-4.5,2.4-5.1
			c6.6-3,13.6-5.3,20.4-8c1.5-0.6,3-1.5,4.5-2.3c-0.9-1.6-1.7-3.3-2.8-4.8c-4-6-9.6-7.9-16.6-7.1c-5.5,0.6-7.9-1.8-7.9-7.7
			c0.2-26.3,0.2-52.7,0-79c0-6.3,1-11.2,8.7-11.2c0.9,0,2,0,2.6-0.6c11.7-11.7,26.4-3.3,39.5-5.6c3.8-0.7,11.2,10,11.2,15.2
			c0.2,18.4,0.2,36.7,0.4,55.1c0.1,5.3-1.7,11.4,5,14.6c0.7,0.4,1.1,2.1,1.2,3.2c0.1,6.6,4.6,7.8,9.9,10c4.7,1.9,9.9,6.8,11.2,11.5
			c1.9,7,7.7,10.3,10.8,15.7c1.4,2.5,3.6,4.9,4.2,7.6c0.8,4.3,0.2,8.9,0.9,13.2c0.5,2.8,2.4,5.4,3.4,8.2c1.1,3.2,2.9,6.6,2.7,9.7
			c-0.7,9,5.1,13.5,10.9,18.3c1.1,0.9,2.6,1.5,3.3,2.6c3.2,4.6,11.3,8.8,1.2,14.8c-1.2,0.7-0.7,4.5-0.7,6.9
			c-0.1,33.5-0.2,66.9-0.3,100.4c0,2.1,0.1,4.2,0.6,6.1c0.2,0.8,1.7,2,2.5,1.9c1.2-0.2,3.1-1.2,3.2-2.1c0.5-3.2,0.6-6.5,0.6-9.7
			c0.1-22.5,0.2-45,0.4-67.5c0-4.3-0.4-8.6,4.2-11.8c1.7-1.2,1.9-5.3,2-8.1c0.4-16.9,0.6-33.7,0.9-50.6c0.2-11.1,0.3-11.1,11.7-11.3
			c3,0,5.9-0.1,8.9,0c1.7,0.1,4.4-0.1,5.1,0.9c5.5,8.6,14,5.7,21.6,6.1c8.3,0.4,8.9,0.6,8.9,9.4c0,43.2-0.1,86.5-0.3,129.7
			c0,2,0.2,5.1-0.9,5.9c-7,4.9-4.9,12.2-5,18.6c-0.5,26-0.6,52.1-0.8,78.2c0,2.1,0,4.2,0.5,6.2c0.5,1.8,1.6,3.5,2.5,5.2
			c1.5-1.1,2.9-2.4,4.6-3.2c2.8-1.3,5.7-2.7,8.7-3.2c3.8-0.6,7.7-0.1,11.5-0.2c7.2-0.2,13.1-5.6,13.4-12.9c0.4-9.2,0-18.4,0.6-27.5
			c0.2-3.2,1.7-6.6,3.6-9.2c3.6-5,3.2-16.3-0.7-21.1c-1.7-2-3-5-3.1-7.6c-0.3-18-0.3-36.1-0.2-54.2c0-3.8-0.3-7.8,4.4-9.7
			c1.1-0.5,1.9-2.9,2.1-4.4c0.4-4.4-0.1-8.6,5.3-11c1.4-0.6,2-6.3,0.9-8.8c-1.6-3.4-4.6-7.2-7.9-8.3c-6.1-2.1-5.3-6.6-5.4-10.7
			c-0.1-20.7-0.9-18.5,18.7-18.6c6,0,9.5,1.7,10.5,8.9c0.6,4.1,4.8,8.4,8.4,11.2c3,2.4,4.6-0.7,4.7-3.8c0.2-7.7,0.6-15.4,0.6-23.1
			c0-50.9,0-101.9,0-152.8c0-5.6-0.1-11.3,0.5-16.9c0.2-2.3,2.2-4.3,3.3-6.5c1.1-1.9,2.9-3.8,3.1-5.8c0.4-5.9,3.3-8.4,8.9-8.6
			c1.2-0.1,3-0.1,3.4-0.8c5.4-8.9,14.1-5.1,21.6-5.8c3.7-0.3,7.6-0.4,9.7,4.3c0.6,1.3,3.4,2.4,5.2,2.4c6,0,8.3,3.3,8.7,8.7
			c0.1,1.4,0.5,3.7,1.3,4c7.1,2.4,5.5,8.3,5.5,13.3c-0.1,30.2-0.2,60.4-0.7,90.6c-0.1,3.4-2.4,6.7-3.7,10c-0.8,2.1-2,4.3-2,6.5
			c-0.3,13.6-0.5,27.2-0.2,40.9c0.1,2.8,1.4,7.3,3.3,8c3.7,1.4,8.7,3.3,11.4-2.8c0.3-0.8,4.9-0.9,5.1-0.4c1.9,4.8,6,4.1,9.8,4.3
			c4.4,0.2,8.9,0.8,13.3,0.3c2.3-0.3,4.3-2.7,6.6-4c1.7-1,3.5-1.9,5.3-2.8c0,2.1,0.4,4.3,0,6.3c-0.4,1.7-2.9,3.9-2.5,4.8
			c1.8,3.2,4.4,5.8,6.7,8.7c1.3-1.1,3.7-2.1,3.9-3.4c0.7-4.7,0.8-9.4,0.9-14.2c0.2-7.4-0.1-14.8,0.4-22.2c0.2-3.3,2.4-6.4,2.7-9.7
			c0.4-4.4,0.9-9.3-0.7-13.1c-2.3-5.4-2.9-9.7,0.3-14.8c1.5-2.3,2.2-5.5,2.2-8.3c0.2-43.2,0.1-86.4,0.2-129.6
			c0-7.3-3.5-12.3-9.2-16.5c-3.5-2.6-6.4-6-9.2-9.3c-0.5-0.6,0.4-3.6,1.5-4.3c9.5-5.9,12.3-14.4,11.3-25.1c-0.7-7,0-14.2,0-21.3
			c0-4.6,0.8-9.4-4.8-12.2c-1.6-0.8-1.5-4.8-2.5-7.2c-0.5-1.2-1.8-2.1-2.7-3.1c-1.2,1.1-3.1,2-3.4,3.3c-0.7,3.5-0.2,7.1-1,10.6
			c-0.3,1.5-2.4,2.7-3.7,4.1c-1.1-1.4-3.1-2.9-3.1-4.3c-0.1-5.6-0.9-11.7,1-16.7c2.2-5.7,7.2-10.2,7.9-16.8c0.1-0.6,1.9-1.3,2.9-1.6
			c1.7-0.6,4.4-0.3,5-1.4c6-10.2,19.8-2.9,26.2-12c0.3-0.5,3.5,0,3.8,0.6c2,5.1,6.6,4.1,10.5,4.9c1.8,0.4,3.5,1.6,5.1,2.6
			c2.3,1.4,4.4,3.8,6.8,4.3c4.4,0.9,6.7,2.5,7.3,7.2c0.4,2.8,2.8,5.3,4.3,7.9c0.6,1,1.9,1.9,1.9,2.8c0.2,10.6,0.3,21.3,0.1,31.9
			c0,0.9-1.9,1.8-2.9,2.6c-1-1.3-2.8-2.6-2.8-3.9c-0.1-7.1-4-8.6-10-7.4c-1.3,0.3-3.1,1.1-3.6,2.1c-3,6.7-5.6,13.5-8.4,20.2
			c-0.4,1.1-0.2,3-0.8,3.3c-7.7,4-5.6,11.5-6.7,17.8c-0.4,2.3-2.2,4.5-3.8,6.4c-3.2,3.9-3.5,10.4,0.6,13.1c3.8,2.5,4.2,5.5,3.7,9.1
			c-1,7.8,2.2,16.6-5.8,22.9c-1.4,1.1-0.7,5.1-0.8,7.7c-0.3,18.9-0.6,37.9-0.9,56.8c-0.1,3.8-0.1,7.2-4.4,9.7
			c-3.9,2.3-3.2,9.8,0.2,13.3c5.4,5.5,5.1,9,0.5,14.5c-2,2.3-2.8,6.2-2.9,9.4c-0.3,17.4-0.4,34.9-0.1,52.4c0.1,5.3-2,8.5-5.6,12
			c-0.9,0.9,4.5,6.9,5.2,10.8c1.1,6.1-1.8,13.2,6,16.9c0.4,0.2,0.7,1.1,0.7,1.6c-0.8,9.6,7.1,12.9,12.7,18c1,0.9,1.8,2.2,2.5,3.5
			c1.8,3.1,4.6,3.7,6,0.5c1.9-4.5,5.2-4.2,8.7-4.2c3.8,0,7.8,0.6,11.5,0c8.1-1.3,9.7,7.2,15.1,9.8c0.6,0.3,0.8,2.4,0.4,3.3
			c-3,6.8-5.8,13.8-9.7,20.2c-2.1,3.5-6.3,5.6-9.1,8.8c-0.8,0.9-0.4,4.6,0.5,5c4.7,2.3,4.8,6.4,4.8,10.6
			c-0.1,15.4-0.1,30.8-0.7,46.1c-0.1,2.7-2.3,5.4-3.7,8.1c-0.2,0.5-1.3,0.6-1.3,1.1c-1.1,6.5-5.3,11.7-7.4,17.4
			c-2.9,7.7-9.1,12.1-12.3,18.2c-4.1,7.8-8.5,12.7-16.2,16.4c-4.4,2.1-6.9,8.3-11.3,10.5c-5,2.5-4,5.9-4.1,9.5
			c-0.1,4.8,3.7,4.8,6.9,4.8c6,0,7.7,3.3,7.2,8.5c-0.7,7.2,1.1,12.1,9.7,11.9c1.6,0,3.1,2.2,4.8,3.3c1.4,0.8,3.3,2.3,4.2,1.9
			c1.2-0.6,2.2-2.7,2.3-4.2c0.4-4.7,0.3-9.5,0.4-14.2c0.1-4.2,1.9-6.8,6.5-6.5c5.3,0.4,10.5,1.1,15.8,1.2c4.5,0,9-1,13.5-1.1
			c5.5-0.1,11.3-1.3,15.8,3.7c1,1.1,3.4,1.3,5,1.1c10.2-1.3,16.4,4.8,22.6,11.5c7.7,8.4,16.1,16.1,24.1,24.2c1,1,2.8,2.2,2.7,3.2
			c-0.6,6.7,3.9,10.7,7.8,14.8c4,4.3,8,8.3,7.7,14.7c8.5,3.3,4.5,14.3,12,19c3.3,2.1,3.6,8.7,5.4,13.2c3,7.8,6.2,15.5,9.2,23.3
			c0.2,0.5,0.1,1.3,0.4,1.7c11.6,12.1,3.1,27,5.3,40.4c0.2,1.3-1.5,3-2.5,4.3c-0.8,1.2-2.9,2.3-2.8,3.1c2.1,10.2-6.4,16.8-8.5,25.6
			c-1,4-3.4,8.1-6.2,11.2c-9,9.6-18.5,18.7-28,27.9c-1.1,1.1-3.1,1.4-4.8,1.7c-3.7,0.7-7.4,0.5-9.4,5.1c-0.6,1.5-4.6,1.7-7.1,2
			c-5.3,0.7-11-0.9-14.8,5.5c-1.1,1.9-6.6,1.7-10,1.7c-33.2,0.1-66.3,0-99.5,0c-121.4-0.2-242.8-0.3-364.2-0.5
			c-5.5,0-11.2,1.2-15.2-4.7c-1-1.5-4.9-1.3-7.5-1.3c-49.1-0.2-98.3-0.3-147.4-0.4c-5.3,0-10.7-0.1-16-0.5c-1.9-0.1-4.9-0.8-5.4-2
			c-1.7-4.3-5.2-4-8.6-4.9c-2.5-0.7-4.7-2.6-7-4.1c-1.2-0.7-2.3-2.3-3.5-2.3c-9,0.2-13.2-6.7-18.4-12.2c-0.8-0.8-1.9-2.1-2.7-1.9
			c-7.4,1.2-10-6-15.1-8.7c-0.9-0.5-1.8-1.7-2-2.7c-0.8-5-1.2-10-7-12.1c1-9.5-10.1-15-8.3-24.9c0.3-1.6,0.1-4.4-0.9-5
			c-7.9-5.1-5.1-13.1-5.6-20.1c-0.4-5.3-0.4-10.7,0.2-16c0.4-3.1,2.6-6,3.6-9.1c1.2-3.5,2.2-7.1,2.8-10.7c0.7-4.2-0.5-8.8,4.8-11.4
			c1.4-0.7,2.4-4.2,2.1-6.3c-1.3-9.9,5.2-15.3,11.2-21.2c0.8-0.8,1.8-1.5,2.7-2.2c6.9-5.4,8.9-12.4,7.9-20.8
			c-0.5-4.4-0.2-8.9,0.4-13.3c0.2-1.8,2.2-3.5,3.4-5.2c1.1,1.8,2.9,3.6,3.1,5.6c0.5,4.7-0.2,9.5,0.3,14.2c0.3,2.6,1.9,6.9,3.4,7
			c3.4,0.4,7.1-1,10.5-2.1c1.2-0.4,2.1-3.2,2.8-3.1c12.1,2.4,20.3-9.3,32-8.4c4.9,0.4,9.4,0.1,13.5-4.6
			C120.2,624,123.5,629.6,126.7,633.9z M293.1,655.6c0.3-4.1-0.8-7.1-5.7-7.1c-12.7,0-25.4,0-38.1,0.1c-4.7,0-5.8,3-5.9,7.1
			c-0.1,4.5,1.9,6.4,6.4,6.3c7.7-0.1,15.4,0,23.1,0.1c5.8,0.1,11.9,1.7,15.4-5.4c0.5-1,3.3-0.9,5-1.2c-0.5,6.4,3.5,7,8.5,6.9
			c12.7-0.3,25.4-0.4,38.1-0.2c7.5,0.2,11.8,7.8,6.6,12.5c-5.7,5.2-4.8,10.9-5,16.8c-0.4,10.9-0.2,21.9-0.9,32.8
			c-0.2,3.4-2.7,6.6-3.8,10c-0.6,1.7-1.3,4.2-0.6,5.2c4.3,5.5,9.1,9.5,17.3,8.6c6.3-0.7,8.9-2.3,8.9-8.8c-0.1-15.7,0.2-31.4,0.7-47
			c0.1-2.7,0.8-6.2,2.6-7.8c3.9-3.4,3.2-4.8-0.1-8.3c-2.1-2.2-2.4-7-1.7-10.4c0.3-1.5,4.7-3.2,7.3-3.2c10.3-0.3,20.7,0,31.1,0
			c3.8,0,7.9,0.6,11.5-0.4c3.6-1,6.7-5.4,9.9-5.3c3.3,0.1,6.6,3.7,9.9,5.8c-0.1,16.3-0.1,32.5-0.5,48.8c-0.1,2.6-2.3,5.4-4,7.8
			c-4.6,6.3-10.9,11.5-9.3,20.9c0.8,5,2.2,7.6,7.4,7.6c20.7,0,41.4,0,62.1,0.1c5.1,0,6.6-2.4,6.5-7.1c-0.3-10.3-1.2-20.8,0-31
			c1.1-9-4.3-13.3-9.7-17.7c-7.2-5.8-12.8-11.9-11.6-21.9c0.2-1.8,0.6-3.7,0.2-5.3c-0.8-2.9-1.6-7.7-3.4-8.2
			c-3.2-0.8-7.2,0.7-10.7,1.6c-4.1,1.1-7.9,3.2-12,3.9c-4.9,0.8-10,0.5-15.1,0.7c0-1.2,0.1-2.4,0.1-3.5c-0.1-10-0.4-10.5-10.5-10.7
			c-8-0.1-16-0.3-23.9,0.2c-2.9,0.2-6.4,1.4-8.2,3.4c-3.3,3.6-4.9,3-7.4-0.6c-0.9-1.2-4.7-2.1-4.8-1.9c-4.1,7.1-7.5,5-11.6-0.1
			c-0.9-1.2-3.9-0.9-5.9-0.9c-8.6-0.1-17.1-0.3-25.7,0.1c-2.9,0.1-6.2,1.5-8.4,3.3c-5.2,4.4-9.5,4.6-14.3-0.1c-5-5-9.7-4.7-14.7,0.5
			C296.8,653.9,294.8,654.6,293.1,655.6z M686.6,655.7C686.6,655.7,686.6,655.7,686.6,655.7c-11.8,0-23.6-0.1-35.5,0.2
			c-1.8,0-3.5,2.2-5.3,3.3c1.8,1.1,3.5,2.5,5.4,3.1c1.6,0.5,3.5,0.1,5.3,0.1c11.8,0.1,23.7-0.1,35.5,0.4c2.7,0.1,7.5,2.7,7.5,3.9
			c-0.6,11.2,4.9,23.4-4.7,33.4c-1,1.1-1.1,3.3-1.2,5c-0.4,6.5-0.8,13-0.8,19.5c0.2,24.5,0.2,24.5,25,23.3c3.2-0.2,8.1,0.2,9.2-1.6
			c3.8-6.1,9.4-5,14.8-5.6c2.3-0.3,5.3-0.1,6.8-1.4c7.5-7,14.8-14.3,21.9-21.7c2.7-2.8,6.4-5.9,6.8-9.2c1-9,0.6-18.2,0.4-27.3
			c0-1.2-2-3.3-3.3-3.5c-7.9-1.1-15.4-1.1-22.6-6.7c-4.1-3.2-9.8-3-9.8-10.4c0-4.6-2.9-5.9-6.1-1.9c-2.1,2.7-4.3,5.3-6.6,1.4
			c-2.8-4.5-6.6-4.3-10.7-4.3C707.9,655.7,697.2,655.7,686.6,655.7z M144.2,681.2c-0.2,0-0.3,0-0.5,0c0-6.2-0.1-12.4,0-18.6
			c0.1-4.2-1.2-7-5.9-6.9c-4.2,0.1-6.7-1.6-9.4-5.1c-3.3-4.4-10.8-2.1-11,3.4c-0.2,7.6-4.5,9.1-10.3,8.6c-9.6-1-15.1,9.5-24.6,8.6
			c-0.3,0-0.5,1.1-1,1.4c-2.6,1.4-5.3,4-7.9,3.9c-7.3-0.3-12.6,2.3-17.3,7.8c-4,4.7-3.8,9.7,0.6,14.2c3.8,3.9,8.3,8.3,9.7,13.2
			c1.9,7,7,10.6,11.4,15.1c2.6,2.7,5.6,5.9,8.9,6.6c6.3,1.5,13.6-0.6,18,6.6c0.5,0.8,2.8,0.7,4.2,0.8c4.4,0.3,8.9,0.4,13.3,0.7
			c5.6,0.4,12-2,15.9,4.8c0.3,0.5,3.6,0.3,4.5-0.6c4.7-4.5,9.5-8.9,7.8-16.9c-1.1-5.1-0.1-10.6-0.4-15.9c-0.1-2.2-0.4-5.5-1.9-6.4
			c-4.4-2.8-4-6.9-4.1-11C144.2,690.7,144.2,685.9,144.2,681.2z M549.1,179c-3.6,2.1-6.5,5.1-9.7,5.4c-6.6,0.7-8.4,4.2-8.4,9.9
			c0,2.4-0.1,4.7-0.1,7.1c0.3,113,0.5,226,0.8,339c0,2.1-0.1,4.2,0.3,6.2c0.3,1.2,1.6,2.1,2.5,3.2c1.1-1.1,2.9-2.1,3.2-3.4
			c0.6-2.2,0.4-4.7,0.5-7c0.1-9.8,0.1-19.5,0.4-29.3c0.1-2.8,0.5-6.7,2.3-8c4.2-3.1,3.9-7,3.9-11.1c0.2-27.8,0.3-55.6,0.4-83.4
			c0.3-56.5,0.5-113,0.9-169.5c0-3.1-0.1-8,1.6-9.1c5.2-3.4,4.2-8,4.3-12.5c0.2-6.2,0-12.4,0.5-18.6c0.1-2.1,1.1-5.1,2.6-5.9
			c5.7-2.9,4.9-4.9,0-7.7C552.6,182.9,550.8,180.5,549.1,179z M235.8,723.4c-0.1,0-0.1,0-0.2,0c0-14.5,0.2-29-0.2-43.4
			c-0.1-3.1-1.7-6.6-3.6-9.2c-3.5-5-3.5-10.6,0.6-15c1.2-1.3,1.9-3.1,2.8-4.7c-1.8-0.8-3.6-2.2-5.4-2.2c-24.2-0.1-48.5-0.2-72.7,0.1
			c-1.7,0-3.5,2.2-5.2,3.4c1.8,1.1,3.6,3,5.5,3.1c8.6,0.4,17.1,0.4,25.7,0.5c9.6,0.1,10.2,0.8,11,10.6c0.3,4,0.2,9.1,2.5,11.4
			c3.5,3.5,3.9,6.9,4,11.1c0.1,13.6,0.1,27.2,0.4,40.8c0.1,2.8,0.3,7,2,8.1c5.3,3.5,4.5,8.4,4.9,13.3c0.2,3.2-0.2,8,1.6,9.2
			c5.6,3.6,5.3,8.5,5.5,13.9c0.2,6.5,6.4,10.4,11.5,6.5c4.6-3.4,9.8-7,9.4-14.7C235.3,751.7,235.8,737.5,235.8,723.4z M286.7,556.4
			c-0.1,0-0.2,0-0.3,0c0,9.5,0,18.9,0,28.4c0,3.5,0.5,6.6,5.1,6.7c3.7,0.1,6.2-1.1,6.9-5.2c0.4-2.2,1.1-5.4,2.6-6.1
			c4.8-2.5,4.3-6.6,4.5-10.7c0.2-5.9,0.1-11.8,0.4-17.8c0.1-2.3,0.2-5.8,1.6-6.6c5.6-3.3,4.6-8.4,4.7-13.3
			c0.3-32.9,0.5-65.7,0.9-98.6c0-3.1,0-7.8,1.9-9c4.8-3.2,4.3-7.3,4.3-11.7c0-7.1-0.2-14.2,0-21.3c0.1-4-0.6-8.5,5-10.2
			c0.6-0.2,1.1-4.6,0.3-5.3c-3.4-2.8-10.9-0.2-11.1,4c-0.4,7.6-4.2,9.1-10.9,9.1c-8.8-0.1-9.2,0.7-9.5,9.8c0,1.5,0,3,0,4.4
			c0,36.1,0,72.2-0.1,108.4c0,3.1,0.1,7.8-1.7,9.1c-5.2,3.7-4.4,8.6-4.4,13.5C286.6,541.6,286.7,549,286.7,556.4z M298.8,360.5
			c0,0.1,0,0.2,0,0.2c3.3,0,6.5,0.3,9.7-0.1c3.7-0.5,8.7,1.8,10.3-3.6c0.1-0.4-5.4-2.8-8.5-3.6c-3.1-0.8-6-3.5-3.5-5.1
			c7.9-5.2,4.8-9.1-0.2-13.6c-0.7-0.6-0.6-2.2-0.6-3.4c-0.3-8.3-0.7-16.5-0.6-24.8c0-3.9-0.4-8.5,4.9-10.4c1-0.3,2-3.8,1.6-4.2
			c-3.5-3.2-7.1-6.4-11.1-8.8c-1.5-0.9-5.7-0.3-6.5,1c-4.8,8-16.4,11.5-15.9,23.2c0.1,1.3-1.9,2.7-3.1,3.9c-4,4.2-4.9,17.5-0.4,20
			c4.5,2.5,4.3,5.9,4.4,9.6c0.1,4.1-0.1,8.3-0.3,12.4c-0.3,5.3,2.2,7.5,7.4,7.3C290.5,360.4,294.6,360.5,298.8,360.5z M581,471.6
			c-0.1,0-0.1,0-0.2,0c0,7.4-0.1,14.8,0.1,22.1c0.1,2.2,1,6.2,1.8,6.3c5.5,0.6,11.1,0.8,16.5-0.2c1.4-0.3,2.1-5.3,2.8-8.3
			c0.8-3.7,0-9.6,2-10.7c5.5-3,4.9-7.4,5.3-12c0.4-4.3,0.2-8.5,5.2-11.3c1.6-0.9,1.8-6,1.1-8.8c-0.4-1.7-3.5-3.9-5.5-4.1
			c-7.3-0.7-14.7-0.6-22.1-0.9c-5.5-0.3-7.3,2.3-7.1,7.5C581.2,458,581,464.8,581,471.6z M631.4,774.3c-0.2,0-0.5,0-0.7,0
			c0,12.1-0.2,24.2,0.2,36.3c0.1,2.1,2.6,5.5,4.6,6c2.7,0.6,7.8-0.2,8.5-1.8c2.6-6.3,5.1-13.1,5.4-19.9c0.8-17.7,0.3-35.4,0.7-53.2
			c0.1-6-1.8-8.7-8-8.5c-8,0.3-10.4,1.8-10.5,8.3C631.3,752.4,631.4,763.4,631.4,774.3z M560.3,367.8c-0.1,0-0.2,0-0.3,0
			c0,2.7,0,5.3,0,8c0,25.8-0.1,51.5,0.1,77.3c0,2.1,2.1,4.1,3.2,6.2c0.9-1.9,1.9-3.8,2.6-5.8c0.3-0.8,0.1-1.8,0.1-2.6
			c0.1-54.8,0.3-109.5,0.4-164.3c0-1.5,0.3-3.1-0.1-4.4c-0.7-2-1.9-3.8-2.8-5.7c-1,1.8-2.4,3.5-3,5.4c-0.5,1.6-0.1,3.5-0.1,5.3
			C560.3,313.9,560.3,340.8,560.3,367.8z M392.5,479.7c-0.6,4.9-1,8.5-1.5,12c-0.4,2.6-0.3,6.6-1.8,7.4c-6.7,3.8-5.4,10-5.4,15.6
			c-0.1,26.6,0.1,53.3,0,79.9c0,4.6,1.1,9.7-4.7,12.3c-0.7,0.3-0.9,4.1-0.5,4.4c6.9,3.1,4.7,9.3,5.5,14.6c0.4,2.6,2.1,4.9,3.2,7.4
			c1.2-2.6,3.4-5.3,3.5-7.9c0.4-10.9,0.2-21.9,0.2-32.8c0.1-24.9,0-49.7,0.3-74.6c0-3,0.6-6.7,2.4-9
			C399.5,501.4,399.8,489.3,392.5,479.7z M602.7,701.8c-0.1,0-0.1,0-0.2,0c0,10,0.3,20.1-0.2,30.1c-0.1,3.1-2.1,6.2-3.4,9.2
			c-0.6,1.4-1.9,2.6-2.8,3.9c1.6,1,3.1,2.5,4.9,2.8c2.3,0.5,4.7,0,7.1,0.2c6,0.5,8.4-2,8.2-8.1c-0.4-18.3-0.3-36.6-0.6-54.9
			c0-2.4-1.2-4.9-2.2-7.3c-1.2-2.8-2.7-5.4-4.1-8.1c-1.1-2.1-2.4-4.1-3.6-6.1c-1,2.1-2.9,4.2-2.9,6.4
			C602.6,680.5,602.7,691.1,602.7,701.8z M644.4,454.2c0.1,0,0.2,0,0.2,0c0-3.5,0.2-7.1-0.1-10.6c-0.1-1.9-0.6-4.3-1.8-5.5
			c-6.5-6.8-12.9-13.8-20.3-19.7c-2.4-1.9-7.4-0.6-11.3-0.8c0.1,4.1-1.4,9.5,0.6,11.9c4.8,5.7,12.4,9.1,12.6,18c0,1,1,2.5,1.9,2.7
			c4.5,1.4,4.7,5,4.6,8.6c-0.3,6.8,7.2,7.8,9.3,12.8c1.4-1,3.9-2,4-3.1C644.6,463.7,644.4,459,644.4,454.2z M631.2,612.9
			c-0.1,0-0.2,0-0.3,0c0,4.1,0.4,8.3-0.1,12.4c-1,8,5.7,11.1,10.1,15.1c2.2,2,8,2,8.5-2.6c0.6-5.6-0.6-11.5-1.5-17.2
			c-0.4-2.8-2.8-5.5-2.6-8c0.8-7.9-3.2-13.3-8.1-18.3c-3.2-3.3-5.6-2.1-5.9,1.9C630.8,601.6,631.2,607.3,631.2,612.9z M637.8,503.7
			c0.1,0,0.1,0,0.2,0c0-4.1,0.3-8.3-0.1-12.3c-0.2-1.6-2-3-3.1-4.5c-1.3,1.5-3.8,3.1-3.7,4.6c0.2,8.4-6.6,11.9-11.2,16.8
			c-5.1,5.4-10.6,10.4-15.7,15.9c-0.4,0.4,1.3,4.2,2.1,4.2c6.5,0.4,14,4.6,18.8-4c0.6-1.1,3.1-1.6,4.8-1.6c6.1-0.2,8-3.9,8-9.3
			C637.7,510.2,637.8,507,637.8,503.7z M279.2,220.2c0,0-0.1,0-0.1,0c0-10.6,0-21.3,0-31.9c0-2.4,0.4-5.2-0.7-6.9
			c-1.1-1.8-3.9-3.2-6.1-3.5c-2-0.3-4.2,1.2-6.4,1.9c1,1.8,2.1,3.5,2.9,5.4c1,2.6,2.5,5.2,2.6,7.9c0.3,16.8,0.4,33.7,0.4,50.6
			c0,4.2,0.7,8.7-4.5,11.5c-3.1,1.7-1.9,4.5,1.4,5.7c6.8,2.4,10.5-0.2,10.5-7.8C279.2,242,279.2,231.1,279.2,220.2z M286.1,726
			c0,2.9-0.4,6,0.2,8.8c0.4,1.9,2.3,3.4,3.5,5.1c0.9-1.6,2.5-3.3,2.5-4.9c0.4-9.4,0.3-18.8,0.6-28.3c0.2-6.1,0.2-11.8,3.6-17.7
			c2.3-4,1-10.3,0.8-15.5c0-1.1-2.1-2.8-3.5-3.2c-4.8-1.5-7.6,1-7.6,7.5C286,693.8,286.1,709.9,286.1,726z M369.5,555.1
			c-0.1,0-0.2,0-0.4,0c0-6.8,0.2-13.6-0.1-20.3c-0.1-1.5-2-3-3-4.5c-1,1.6-2.7,3.1-2.8,4.7c-0.6,8.8-0.7,17.7-1,26.5
			c-0.2,4.3,0.8,9-4.5,11.5c-0.8,0.4-0.9,4.4-0.7,4.4c3,0.8,6.2,1.8,9.2,1.5c1.3-0.2,3.1-3.3,3.2-5.1
			C369.8,567.5,369.5,561.3,369.5,555.1z"/>
		<path d="M197.2,627c-5.3,0-10.7,0.5-16-0.2c-3.2-0.4-6.1-2.5-9.2-3.7c-2.9-1.1-6-2.7-8.9-2.5c-13.9,0.9-23.1-7.1-31.7-16.2
			c-0.7-0.8,0.2-4.6,1.5-5.5c3.7-2.7,3.4-4.4,0.4-7.6c-2.1-2.2-3.1-6.1-3.2-9.3c-0.5-19.2-0.5-38.5-1.1-57.7
			c-0.1-3.4-2.6-6.6-3.7-10c-0.9-2.7-2.1-5.5-2.2-8.2c-0.4-11.5-0.5-23.1-0.5-34.6c-0.1-32.3,0.6-64.5-0.5-96.8
			c-0.3-9.8,3.9-15.5,10-21.3c1-1,3-1.6,3.3-2.7c2.9-10.3,5.6-20.7,8-31.1c0.8-3.4,0.3-7.1,0.8-10.6c0.2-1.6,0.9-4.2,2-4.5
			c4.5-1.5,3.5-5.6,5-8.5c2.3-4.6,4.9-9.4,8.6-13c8-7.8,16.8-14.8,25-22.4c2.9-2.6,6.2-5.6,7.2-9.1c1-3.4,0.6-8.4-1.4-11.3
			c-4.6-6.6-5-14.4-0.2-20.4c1.7-2.1,2.7-5.2,2.8-7.8c0.5-9.2,0.3-18.3,0.6-27.5c0.2-7.8,9.3-15.2,16.5-13.6c1.3,0.3,3,1.1,3.4,2.1
			c0.4,0.9-0.5,3.3-1.4,3.5c-5.4,1.8-4.6,6.2-4.8,10.2c-0.2,4.8,1.4,10.3-4.7,13.2c-0.5,0.2-0.2,4.6,1,5.5c3.4,2.6,4.2,4.2,0.6,7.5
			c-5.5,5.2-5,21.4,0.6,27.1c2.6,2.6,2.2,4-0.3,6.4c-6.6,6.6-4.8,12.5,4.1,14.6c1.7,0.4,4.3,0.6,4.8,1.7c2.2,5.1,6.4,5.4,10.9,5.9
			c1.3,0.1,2.5,1.9,3.7,2.9c-1.5,1-2.9,2.7-4.5,3c-3.8,0.6-7.7,0.3-11.5,0.6c-4.9,0.3-10-0.7-13.1,5.1c-0.8,1.6-4.9,2.3-7.3,1.9
			c-8.9-1.4-13.9,4.8-18.7,10c-3.7,4.1-9.9,7.7-8.3,15c-9.3,6.7-5.8,16.8-6.9,25.7c-0.3,2.3-2.1,4.6-3.7,6.5
			c-4.1,4.7-2.8,9.4,0.5,14.4c4.8,7.4,11.5,6.8,18.4,7.1c3,0.1,6,0,8.8,0.5c1.3,0.3,2.3,2,3.5,3.1c-1,0.9-2,2.4-3.2,2.5
			c-3.8,0.6-7.7,0.4-11.5,1c-1.7,0.3-3.2,1.9-4.8,2.9c1.7,1.3,3.2,3.3,5,3.6c3.7,0.7,7.7,0.3,11.5,0.8c1.1,0.1,2.1,1.7,3.2,2.6
			c-1,1.2-1.8,3-3.1,3.5c-7,2.9-14.1,5.4-21.2,8.1c-0.5,0.2-1.5,0.6-1.5,0.8c0.8,9.8-11.6,15-8.8,25.4c0.5,1.9,0.6,5,1.9,5.6
			c5.9,3,5.2,8.1,5.1,13.1c-0.3,14.5,0.5,28.6,6.1,42.5c2.5,6.2,0.8,14,1.2,21.1c0.1,2.6-0.2,6.6,1.3,7.6c7.6,4.9,5.5,12.4,5.7,19.2
			c0.2,4.2,0.4,7.8,4.4,10.9c2,1.5,2.5,5.8,2.5,8.8c0.3,16.3,0.3,32.6,0.3,48.8c0,4.4-0.4,8.8,4.4,11.7c1.5,0.9,2.3,4.1,2.2,6.2
			c-0.4,7.4,3.6,9.1,9.9,8.9c6.5-0.2,13-0.1,19.5,0.3c1.9,0.1,3.7,2,5.5,3c-1.8,1.1-3.5,3-5.4,3.1c-6.2,0.4-12.4,0.2-18.6,0.2
			C197.2,626.9,197.2,627,197.2,627z"/>
		<path d="M422.6,289.5c-6-1.3-14.4,3.1-19.3-5.5c-0.2-0.3-3.3,0.7-4.9,1.5c-1.7,0.8-3.1,2.1-4.7,3.2c-0.9-2.3-2.4-4.6-2.4-6.9
			c0-1.9,2.1-5.5,2.9-5.4c10,1,21-4.9,30.1,4.1c1.7,1.7,5.6,1,8.3,1.9c2.5,0.8,6.9,2.2,6.9,3.3c0.1,4.9-4.4,3.4-7.3,3.7
			C429.3,289.7,426.3,289.5,422.6,289.5z"/>
	</g>
</g>
</svg>
