<?xml version="1.0" encoding="utf-8"?>
<!-- Generator: Adobe Illustrator 26.5.0, SVG Export Plug-In . SVG Version: 6.00 Build 0)  -->
<svg version="1.1" id="Layer_1" xmlns="http://www.w3.org/2000/svg" xmlns:xlink="http://www.w3.org/1999/xlink" x="0px" y="0px"
	 viewBox="0 0 835.2 817.1" style="enable-background:new 0 0 835.2 817.1;" xml:space="preserve">
<g>
	<path style="fill:none;stroke:#8C9390;stroke-width:43.2322;stroke-miterlimit:10;" d="M712.6,795.5h-590c-55.5,0-101-45.4-101-101
		v0c0-55.5,45.4-101,101-101h590c55.5,0,101,45.4,101,101v0C813.6,750.1,768.2,795.5,712.6,795.5z"/>
	<path style="fill:none;stroke:#8C9390;stroke-width:14;stroke-miterlimit:10;" d="M458.1,747c0,0-22.3-97.4-23-98.4V262.5
		c0-18.7-15.3-34-34-34h0c-18.7,0-34,15.3-34,34v386.2c-0.7,1-22.2,98.4-22.2,98.4c-2.3,10.6,1.1,20,7.7,20h98
		C457.2,767,460.5,757.6,458.1,747z"/>
	<path style="fill:none;stroke:#8C9390;stroke-width:14;stroke-miterlimit:10;" d="M734.4,762.4L718,664.9h0.1c1.3,0,2.3-1,2.3-2.3
		v-0.1c0-1.3-1-2.3-2.3-2.3h-0.2l16.9-142.7c0.9-0.3,1.5-1.2,1.5-2.2c0-1.3-1.1-2.3-2.3-2.3H617.3c-1.3,0-2.3,1.1-2.3,2.3
		c0,0.9,0.5,1.7,1.3,2.1l16.9,142.8h-0.5c-1.3,0-2.3,1-2.3,2.3v0.1c0,1.3,1,2.3,2.3,2.3h0.5l-16.5,97.5c-0.9,0.3-1.6,1.2-1.6,2.2
		c0,1.3,1.1,2.3,2.3,2.3h116.6c1.3,0,2.3-1.1,2.3-2.3C736.3,763.6,735.5,762.6,734.4,762.4z"/>
	<path style="fill:none;stroke:#8C9390;stroke-width:14;stroke-miterlimit:10;" d="M334.4,342.5h-9c-3-37.1-25.8-69.1-58.7-87.1
		c0.3-1.7,0.5-3.4,0.5-5.2v-69.5c0-14.7-12-26.8-26.8-26.8H171c-14.7,0-26.8,12-26.8,26.8v69.5c0,1.8,0.2,3.5,0.5,5.2
		c-32.8,18-55.6,50-58.7,87.1h-9c-2.5,0-4.6,2-4.6,4.6v1.4c0,2.5,2,4.6,4.6,4.6h1.3l26.1,409.3c0.2,2.6,2.4,4.7,5,4.7h96.8h96.8
		c2.6,0,4.8-2,5-4.7L333.9,353h0.5c2.5,0,4.6-2,4.6-4.6v-1.4C338.9,344.5,336.9,342.5,334.4,342.5z"/>
	<path style="fill:#8C9390;" d="M600.1,761h-52.8V161.5c0-3.6-2.9-6.5-6.5-6.5s-6.5,2.9-6.5,6.5V761h-52.8c-2.9,0-5.2,2.3-5.2,5.2
		v2.6c0,2.9,2.3,5.2,5.2,5.2h118.6c2.9,0,5.2-2.3,5.2-5.2v-2.6C605.3,763.3,602.9,761,600.1,761z"/>
	<ellipse style="fill:none;stroke:#8C9390;stroke-width:14;stroke-miterlimit:10;" cx="540.8" cy="83" rx="59" ry="76"/>
</g>
</svg>
