<?xml version="1.0" encoding="utf-8"?>
<!-- Generator: Adobe Illustrator 26.5.0, SVG Export Plug-In . SVG Version: 6.00 Build 0)  -->
<svg version="1.1" id="Layer_1" xmlns="http://www.w3.org/2000/svg" xmlns:xlink="http://www.w3.org/1999/xlink" x="0px" y="0px"
	 viewBox="0 0 192.7 188.3" style="enable-background:new 0 0 192.7 188.3;" xml:space="preserve">
<style type="text/css">
	.st0{fill:#E28181;}
</style>
<path class="st0" d="M135.2,0C98,0.5,89.8,11.5,78.8,34.8c-1.6-12.6-3.6-20.8-6-21.7C61.8,9.1,10,26,10,26s-24.9,15.9,4,30.9
	c0,0,2.2,54,1.1,100.6c0,0-14,9.2-15,20.5c-1,11.3,12,10.3,12,10.3l73.3,0c0,0,10.3-4,8.3-13s-11.6-17.9-11.6-17.9
	c1-24.1,0.9-52.2-0.1-77.2l13.6-36.3c0,0,7-19.9,24.9-17.9s18.4,13.4,18.4,22.4s5,38.8-35.8,29.9c-1,9-2,38.8,32.9,37.8
	s56.7-27.9,56.7-60.7S177.3-0.6,135.2,0z"/>
</svg>
