<?xml version="1.0" encoding="utf-8"?>
<!-- Generator: Adobe Illustrator 26.5.0, SVG Export Plug-In . SVG Version: 6.00 Build 0)  -->
<svg version="1.1" id="Layer_1" xmlns="http://www.w3.org/2000/svg" xmlns:xlink="http://www.w3.org/1999/xlink" x="0px" y="0px"
	 viewBox="0 0 150.2 187.5" style="enable-background:new 0 0 150.2 187.5;" xml:space="preserve">
<style type="text/css">
	.st0{fill:#E28181;}
</style>
<path class="st0" d="M0,123.5v45.9c0,0,17.3,18,62.9,18s87.3-16.2,87.3-59.9S90.8,64.2,90.8,64.2s-26.4-8.1-26.4-26.4
	s22.3-22.3,36.5-8.1s15.2,29.4,37.6,28.4c1-22.3,1-46.7,1-46.7S113.2-0.2,75.1,0S-0.5,21.5,0,58.6s40.1,53.3,40.1,53.3
	s39.6,13.2,39.6,30.4s-4.1,23.3-18.3,22.3c-14.2-1-31.5-47.7-46.7-47.7S0,123.5,0,123.5z"/>
</svg>
